<?xml version="1.0" standalone="no"?><!DOCTYPE svg PUBLIC "-//W3C//DTD SVG 1.1//EN" "http://www.w3.org/Graphics/SVG/1.1/DTD/svg11.dtd"><svg t="1646204085305" class="icon" viewBox="0 0 1024 1024" version="1.1" xmlns="http://www.w3.org/2000/svg" p-id="10569" xmlns:xlink="http://www.w3.org/1999/xlink" width="200" height="200"><defs><style type="text/css"></style></defs><path d="M249.173333 732.16H136.533333c-56.32 0-102.4-46.08-102.4-102.4V221.866667c0-56.32 46.08-102.4 102.4-102.4h587.093334c56.32 0 102.4 46.08 102.4 102.4v112.64c0 18.773333-15.36 34.133333-34.133334 34.133333s-34.133333-15.36-34.133333-34.133333V221.866667c0-18.773333-15.36-34.133333-34.133333-34.133334H136.533333c-18.773333 0-34.133333 15.36-34.133333 34.133334v406.186666c0 18.773333 15.36 34.133333 34.133333 34.133334h112.64c18.773333 0 34.133333 15.36 34.133334 34.133333 0 20.48-15.36 35.84-34.133334 35.84z" fill="#333333" p-id="10570"></path><path d="M602.453333 549.546667l317.44-237.226667c-6.826667-1.706667-15.36-3.413333-23.893333-3.413333H307.2c-5.12 0-10.24 0-15.36 1.706666l310.613333 238.933334z" fill="#333333" p-id="10571"></path><path d="M622.933333 619.52c-6.826667 5.12-13.653333 6.826667-20.48 6.826667-6.826667 0-15.36-1.706667-20.48-6.826667L230.4 349.866667c-10.24 15.36-17.066667 34.133333-17.066667 52.906666v406.186667c0 51.2 42.666667 93.866667 93.866667 93.866667h587.093333c51.2 0 93.866667-42.666667 93.866667-93.866667V402.773333c0-17.066667-5.12-34.133333-13.653333-47.786666L622.933333 619.52z" fill="#333333" p-id="10572"></path></svg>